<svg width="30" height="30" viewBox="0 0 30 30" fill="none" xmlns="http://www.w3.org/2000/svg">
<g clip-path="url(#clip0_143_6373)">
<path d="M5.39039 9.10001H4.44035C4.30954 9.10014 4.18029 9.12847 4.06142 9.18307C3.94255 9.23767 3.83685 9.31726 3.75152 9.41641C3.66619 9.51555 3.60323 9.63194 3.56695 9.75762C3.53067 9.88329 3.52191 10.0153 3.54127 10.1447L6.03831 26.7959C6.13543 27.4419 6.46101 28.0317 6.95592 28.4581C7.45083 28.8846 8.08226 29.1194 8.73555 29.12H21.9815C22.6351 29.1199 23.267 28.8852 23.7623 28.4587C24.2576 28.0322 24.5834 27.4422 24.6806 26.7959L27.1794 10.1447C27.1988 10.0153 27.19 9.88329 27.1538 9.75762C27.1175 9.63194 27.0545 9.51555 26.9692 9.41641C26.8839 9.31726 26.7782 9.23767 26.6593 9.18307C26.5404 9.12847 26.4112 9.10014 26.2804 9.10001H25.3303C25.1069 6.61003 23.9599 4.29376 22.1149 2.60683C20.2698 0.919908 17.8603 -0.015564 15.3604 -0.015564C12.8604 -0.015564 10.4509 0.919908 8.60584 2.60683C6.7608 4.29376 5.61377 6.61003 5.39039 9.10001ZM7.21949 9.10001C7.44198 7.09674 8.39537 5.24587 9.89721 3.90159C11.3991 2.55732 13.3439 1.81406 15.3594 1.81406C17.375 1.81406 19.3198 2.55732 20.8217 3.90159C22.3235 5.24587 23.2769 7.09674 23.4994 9.10001H7.21949ZM25.2229 10.92L22.8824 26.5247C22.8502 26.7401 22.7417 26.9369 22.5767 27.0792C22.4117 27.2214 22.2012 27.2998 21.9833 27.3H8.73555C8.5177 27.2998 8.30715 27.2214 8.14217 27.0792C7.97718 26.9369 7.86871 26.7401 7.83647 26.5247L5.49595 10.92H25.2211H25.2229Z" fill="#808080"/>
</g>
<defs>
<clipPath id="clip0_143_6373">
<rect width="29.12" height="29.12" fill="white" transform="translate(0.800781)"/>
</clipPath>
</defs>
</svg>
