<svg width="30" height="32" viewBox="0 0 30 32" fill="none" xmlns="http://www.w3.org/2000/svg">
<path d="M21.8409 21H23.6609V26H21.8409V21ZM18.2009 16H20.0209V26H18.2009V16ZM10.0109 26C8.80465 25.9984 7.64818 25.4711 6.7952 24.5338C5.94222 23.5964 5.46238 22.3256 5.46094 21H7.28094C7.28094 21.5933 7.44105 22.1734 7.74103 22.6667C8.041 23.1601 8.46737 23.5446 8.96621 23.7716C9.46505 23.9987 10.014 24.0581 10.5435 23.9424C11.0731 23.8266 11.5595 23.5409 11.9413 23.1213C12.3231 22.7018 12.5831 22.1672 12.6885 21.5853C12.7938 21.0033 12.7398 20.4001 12.5331 19.8519C12.3265 19.3038 11.9766 18.8352 11.5276 18.5056C11.0787 18.1759 10.5509 18 10.0109 18V16C11.2177 16 12.375 16.5268 13.2283 17.4645C14.0816 18.4021 14.5609 19.6739 14.5609 21C14.5609 22.3261 14.0816 23.5979 13.2283 24.5355C12.375 25.4732 11.2177 26 10.0109 26Z" fill="#5C2A9D"/>
<path d="M25.4803 2H3.64031C3.15777 2.00053 2.69512 2.21141 2.35391 2.58637C2.0127 2.96133 1.82079 3.46973 1.82031 4V28C1.82079 28.5303 2.0127 29.0387 2.35391 29.4136C2.69512 29.7886 3.15777 29.9995 3.64031 30H25.4803C25.9628 29.9992 26.4253 29.7882 26.7665 29.4133C27.1076 29.0384 27.2996 28.5302 27.3003 28V4C27.2998 3.46973 27.1079 2.96133 26.7667 2.58637C26.4255 2.21141 25.9629 2.00053 25.4803 2ZM25.4803 11H12.7403V4H25.4803V11ZM10.9203 4V11H3.64031V4H10.9203ZM3.64031 28V13H25.4803L25.4821 28H3.64031Z" fill="#5C2A9D"/>
</svg>
