<svg width="30" height="30" viewBox="0 0 30 30" fill="none" xmlns="http://www.w3.org/2000/svg">
<path fill-rule="evenodd" clip-rule="evenodd" d="M15.4795 26.2095C17.1638 26.2732 18.2254 25.0728 18.2254 23.8612C18.2254 22.6496 17.0734 21.6886 16.4093 21.6886C16.4093 20.9535 16.4093 17.8105 16.4068 17.2062C17.0174 17 17.3497 17.0003 18.3849 16.6274C19.4197 16.2545 19.3659 16.3097 20.0945 15.6107C20.8233 14.9118 20.9409 12.8287 20.9409 12.0987C21.3373 12.0782 22.5171 12.1028 22.5171 12.1028L22.4691 8.33651L18.2141 8.38121V12.0301H19.4938C19.4938 12.4655 19.5916 13.4649 19.3211 14.151C19.0508 14.837 18.9808 14.7749 18.2141 15.0888C17.4475 15.4027 16.401 15.5806 16.401 15.5806C16.401 15.5806 16.36 7.16397 16.3846 7.16397L17.8888 7.16408C18.0142 7.16408 18.0617 7.07684 17.996 6.97071L15.4688 2.88959L12.8835 7.0211C12.8168 7.12757 12.8641 7.21175 12.9907 7.2089L14.7499 7.17034C14.7499 7.17034 14.8352 18.2593 14.8331 18.7585C14.3472 18.7585 13.2648 18.7534 12.5327 18.1548C11.8006 17.5562 11.7245 17.1717 11.5166 16.5137C11.3087 15.8556 11.2309 15.088 11.2309 14.5148C11.9697 14.5148 13.167 13.3564 13.167 12.2421C13.167 11.1276 11.9118 9.71152 10.7752 9.71152C9.63852 9.71152 8.13281 10.6536 8.13281 12.0987C8.13281 13.5439 9.27281 14.5147 9.90617 14.5147C9.90617 14.9591 9.97511 16.0344 10.1453 16.6794C10.3154 17.3247 10.4188 17.3528 10.5374 17.6316C10.7964 18.2409 10.833 18.6925 12.0476 19.411C13.2623 20.1293 14.3588 20.105 14.8331 20.105C14.8616 20.4335 14.8331 21.2835 14.8331 21.6886C13.9374 21.6886 12.8766 22.5872 12.8766 23.8828C12.8766 25.1781 13.7952 26.1458 15.4795 26.2095Z" fill="#808080"/>
</svg>
