<svg width="30" height="30" viewBox="0 0 30 30" fill="none" xmlns="http://www.w3.org/2000/svg">
<path d="M21.0237 3.64001H5.95656L5.76971 3.64608C5.07958 3.69343 4.43315 4.001 3.96108 4.50663C3.489 5.01227 3.22648 5.67826 3.22656 6.37001V19.1124L3.23263 19.2993C3.27998 19.9894 3.58755 20.6359 4.09318 21.1079C4.59882 21.58 5.26481 21.8425 5.95656 21.8424H11.112V24.8733H8.9899L8.86614 24.8818C8.63773 24.9133 8.42976 25.0302 8.28426 25.2091C8.13876 25.3879 8.06658 25.6153 8.08229 25.8454C8.09801 26.0754 8.20045 26.2909 8.36892 26.4483C8.53739 26.6057 8.75933 26.6933 8.9899 26.6933H21.7299L21.8537 26.6861C22.084 26.6568 22.2945 26.5407 22.442 26.3613C22.5895 26.182 22.6629 25.953 22.647 25.7213C22.6312 25.4896 22.5274 25.2728 22.3569 25.1151C22.1864 24.9575 21.9621 24.871 21.7299 24.8733H19.6053V21.8424H24.762L24.9489 21.8364C25.639 21.789 26.2854 21.4815 26.7575 20.9758C27.2296 20.4702 27.4921 19.8042 27.492 19.1124V11.5267H25.672V19.1124L25.6635 19.2362C25.6336 19.4541 25.5258 19.6537 25.3601 19.7983C25.1944 19.9428 24.9819 20.0224 24.762 20.0224H5.95656L5.8328 20.014C5.61494 19.984 5.41528 19.8763 5.27075 19.7105C5.12621 19.5448 5.04657 19.3323 5.04656 19.1124V6.37001L5.05506 6.24625C5.08496 6.0284 5.19275 5.82874 5.35847 5.6842C5.5242 5.53966 5.73666 5.46002 5.95656 5.46001H20.8199V4.55001C20.8199 4.22484 20.8927 3.91544 21.0237 3.64001ZM12.9308 21.8424H17.7841L17.7853 24.8733H12.932L12.9308 21.8424ZM22.0332 4.55001C22.0332 4.30867 22.1291 4.07721 22.2998 3.90655C22.4704 3.73589 22.7019 3.64001 22.9432 3.64001H27.7966C28.0379 3.64001 28.2694 3.73589 28.44 3.90655C28.6107 4.07721 28.7066 4.30867 28.7066 4.55001V9.40335C28.7066 9.6447 28.6107 9.87616 28.44 10.0468C28.2694 10.2175 28.0379 10.3133 27.7966 10.3133H22.9432C22.7019 10.3133 22.4704 10.2175 22.2998 10.0468C22.1291 9.87616 22.0332 9.6447 22.0332 9.40335V8.49335H21.6413C21.505 8.49343 21.3722 8.53635 21.2616 8.61603C21.151 8.69572 21.0682 8.80815 21.025 8.93743L19.916 12.2644C19.7519 12.7563 19.4373 13.1842 19.0165 13.4873C18.5958 13.7904 18.0904 13.9535 17.5718 13.9533H16.5732V16.0767C16.5732 16.318 16.4774 16.5495 16.3067 16.7201C16.136 16.8908 15.9046 16.9867 15.6632 16.9867H10.8099C10.5685 16.9867 10.3371 16.8908 10.1664 16.7201C9.99577 16.5495 9.8999 16.318 9.8999 16.0767V11.2233C9.8999 10.982 9.99577 10.7505 10.1664 10.5799C10.3371 10.4092 10.5685 10.3133 10.8099 10.3133H15.6632C15.9046 10.3133 16.136 10.4092 16.3067 10.5799C16.4774 10.7505 16.5732 10.982 16.5732 11.2233V12.1333H17.5718C17.8509 12.1333 18.1008 11.9538 18.1882 11.6893L19.2972 8.36231C19.4612 7.87037 19.7759 7.44253 20.1966 7.1394C20.6173 6.83626 21.1228 6.67321 21.6413 6.67335H22.0332V4.55001ZM23.8532 7.60519V8.49335H26.8866V5.46001H23.8532V7.56151C23.8535 7.57607 23.8535 7.59063 23.8532 7.60519ZM11.7199 12.1333V15.1667H14.7532V12.1333H11.7199Z" fill="#808080"/>
</svg>
