<svg width="30" height="30" viewBox="0 0 30 30" fill="none" xmlns="http://www.w3.org/2000/svg">
<path d="M5.6543 11.5267C5.6543 17.0728 12.5873 21.2333 12.5873 21.2333H18.1346C18.1346 21.2333 25.0676 17.0728 25.0676 11.5267C25.0676 5.98053 20.7215 1.82001 15.361 1.82001C10.0005 1.82001 5.6543 5.98053 5.6543 11.5267Z" stroke="#808080" stroke-width="1.5" stroke-miterlimit="1.5" stroke-linecap="round" stroke-linejoin="round"/>
<path d="M11.7209 2.4267C8.08091 9.7067 12.9342 21.2334 12.9342 21.2334M18.8602 2.4267C22.5002 9.7067 17.6468 21.2334 17.6468 21.2334" stroke="#808080" stroke-width="1.5" stroke-linejoin="round"/>
<path d="M17.0589 27.9067H13.6616C13.4685 27.9067 13.2833 27.83 13.1468 27.6934C13.0103 27.5569 12.9336 27.3717 12.9336 27.1787V24.9947C12.9336 24.8016 13.0103 24.6164 13.1468 24.4799C13.2833 24.3434 13.4685 24.2667 13.6616 24.2667H17.0589C17.252 24.2667 17.4372 24.3434 17.5737 24.4799C17.7102 24.6164 17.7869 24.8016 17.7869 24.9947V27.1787C17.7869 27.3717 17.7102 27.5569 17.5737 27.6934C17.4372 27.83 17.252 27.9067 17.0589 27.9067V27.9067Z" stroke="#808080" stroke-width="1.5" stroke-linecap="round"/>
</svg>
