<svg width="30" height="30" viewBox="0 0 30 30" fill="none" xmlns="http://www.w3.org/2000/svg">
<path d="M15.3599 2.4267C8.65866 2.4267 3.22656 7.85879 3.22656 14.56C3.22656 21.2613 8.65866 26.6934 15.3599 26.6934C22.0611 26.6934 27.4932 21.2613 27.4932 14.56C27.4932 7.85879 22.0611 2.4267 15.3599 2.4267Z" stroke="#808080" stroke-width="1.5" stroke-linecap="round" stroke-linejoin="round"/>
<path d="M10.5059 25.6839V16.9867L15.3592 8.49335L20.2125 16.9867V25.6839" stroke="#808080" stroke-width="1.5" stroke-linecap="round" stroke-linejoin="round"/>
<path d="M10.5059 16.9867C10.5059 16.9867 11.8733 18.2 12.9325 18.2C13.9918 18.2 15.3592 16.9867 15.3592 16.9867C15.3592 16.9867 16.7266 18.2 17.7859 18.2C18.8451 18.2 20.2125 16.9867 20.2125 16.9867" stroke="#808080" stroke-width="1.5" stroke-linecap="round" stroke-linejoin="round"/>
</svg>
