<svg width="19" height="19" viewBox="0 0 19 19" fill="none" xmlns="http://www.w3.org/2000/svg">
<path d="M9.49997 17.2713C9.80755 17.2642 10.1027 17.1486 10.3333 16.9448C10.5638 16.7411 10.7149 16.4624 10.7597 16.158H8.19141C8.23754 16.4707 8.39566 16.7559 8.63637 16.9607C8.87708 17.1655 9.18398 17.2758 9.49997 17.2713Z" fill="white"/>
<path d="M16.5837 14.1219C16.1129 13.7022 15.7006 13.221 15.3581 12.6913C14.9842 11.9601 14.7601 11.1616 14.699 10.3427V7.93063C14.697 7.63764 14.6709 7.34531 14.6208 7.05662C14.2365 6.9798 13.8672 6.84129 13.5271 6.64647C13.6567 7.06387 13.7226 7.49845 13.7224 7.93551V10.3476C13.7823 11.3466 14.0571 12.3209 14.5281 13.204C14.8652 13.7381 15.2652 14.2299 15.7195 14.6688H3.21482C3.66912 14.2299 4.0691 13.7381 4.40621 13.204C4.8772 12.3209 5.15201 11.3466 5.21185 10.3476V7.93063C5.20928 7.36554 5.3182 6.8055 5.53238 6.28257C5.74655 5.75964 6.06177 5.2841 6.45998 4.88316C6.8582 4.48222 7.33159 4.16377 7.85305 3.94604C8.37451 3.72832 8.93379 3.61558 9.49888 3.61431C10.3259 3.61497 11.1344 3.85954 11.8231 4.31742C11.7471 4.03861 11.7045 3.75178 11.6961 3.46294V3.15533C11.1863 2.90453 10.6386 2.73956 10.075 2.66706V2.05184C10.075 1.87896 10.0064 1.71316 9.88412 1.59091C9.76188 1.46867 9.59608 1.39999 9.4232 1.39999C9.25032 1.39999 9.08452 1.46867 8.96227 1.59091C8.84003 1.71316 8.77135 1.87896 8.77135 2.05184V2.69147C7.50952 2.86947 6.35469 3.49797 5.52006 4.46094C4.68543 5.4239 4.22737 6.6563 4.23043 7.93063V10.3427C4.16927 11.1616 3.94517 11.9601 3.57126 12.6913C3.23479 13.2198 2.82918 13.7009 2.36523 14.1219C2.31315 14.1677 2.27141 14.224 2.24278 14.2871C2.21416 14.3503 2.19931 14.4188 2.19922 14.4881V15.1522C2.19922 15.2817 2.25066 15.4059 2.34223 15.4974C2.4338 15.589 2.55799 15.6404 2.68749 15.6404H16.2614C16.3909 15.6404 16.5151 15.589 16.6067 15.4974C16.6983 15.4059 16.7497 15.2817 16.7497 15.1522V14.4881C16.7496 14.4188 16.7348 14.3503 16.7062 14.2871C16.6775 14.224 16.6358 14.1677 16.5837 14.1219Z" fill="white"/>
<path d="M15.3593 5.90432C16.7077 5.90432 17.8007 4.81129 17.8007 3.46296C17.8007 2.11464 16.7077 1.02161 15.3593 1.02161C14.011 1.02161 12.918 2.11464 12.918 3.46296C12.918 4.81129 14.011 5.90432 15.3593 5.90432Z" fill="white"/>
</svg>
