<svg width="19" height="19" viewBox="0 0 19 19" fill="none" xmlns="http://www.w3.org/2000/svg">
<path d="M9.50109 10.4188C10.1079 10.4188 10.5998 9.92683 10.5998 9.32C10.5998 8.71318 10.1079 8.22125 9.50109 8.22125C8.89427 8.22125 8.40234 8.71318 8.40234 9.32C8.40234 9.92683 8.89427 10.4188 9.50109 10.4188Z" fill="white"/>
<path d="M16.7463 8.08939L16.1676 6.24349C16.1052 6.03016 16.0004 5.83159 15.8595 5.65964C15.7186 5.48768 15.5445 5.34586 15.3476 5.24264C15.1508 5.13941 14.9351 5.0769 14.7135 5.05882C14.492 5.04074 14.269 5.06747 14.058 5.13742L13.809 5.21799C13.6139 5.28249 13.4061 5.29885 13.2033 5.26569C13.0005 5.23253 12.8087 5.15083 12.6443 5.02754L12.5637 4.96894C12.4033 4.84616 12.274 4.68739 12.1862 4.50544C12.0984 4.32349 12.0546 4.12346 12.0583 3.92147V3.71637C12.0619 3.25638 11.8827 2.81378 11.5602 2.48577C11.4068 2.33081 11.2243 2.20769 11.0232 2.12346C10.8221 2.03924 10.6063 1.99558 10.3882 1.995H8.52034C8.07218 2.00079 7.64445 2.18339 7.33029 2.50304C7.01612 2.8227 6.84095 3.25353 6.84292 3.70172V3.87752C6.84222 4.09014 6.79381 4.2999 6.70126 4.49133C6.60872 4.68276 6.47439 4.85098 6.30819 4.98359L6.21297 5.05684C6.02936 5.19574 5.81461 5.2877 5.58738 5.32472C5.36015 5.36174 5.12732 5.3427 4.90912 5.26927C4.70872 5.19992 4.49633 5.17195 4.28481 5.18706C4.07329 5.20217 3.86703 5.26004 3.67852 5.35717C3.48225 5.45458 3.30813 5.59135 3.16699 5.75895C3.02585 5.92655 2.92071 6.12141 2.85812 6.3314L2.25747 8.2359C2.11818 8.66528 2.1539 9.13229 2.35688 9.5355C2.55985 9.93871 2.91369 10.2456 3.34157 10.3894H3.45877C3.65615 10.4634 3.8333 10.5829 3.97585 10.7382C4.11839 10.8934 4.22231 11.0801 4.27917 11.2831L4.32312 11.4003C4.40478 11.6245 4.43208 11.8649 4.40279 12.1018C4.37351 12.3386 4.28846 12.5651 4.15464 12.7627C3.88378 13.1316 3.76953 13.5925 3.83674 14.0452C3.90396 14.4979 4.14721 14.9057 4.51357 15.18L6.02984 16.33C6.31695 16.5388 6.66377 16.6492 7.01872 16.645C7.11372 16.6543 7.2094 16.6543 7.30439 16.645C7.52422 16.6024 7.73307 16.5155 7.9182 16.3896C8.10333 16.2637 8.26086 16.1013 8.38117 15.9125L8.54964 15.6708C8.66783 15.5012 8.8242 15.3619 9.00615 15.2639C9.1881 15.1659 9.39054 15.1121 9.59712 15.1067C9.81361 15.1014 10.0279 15.151 10.2201 15.2509C10.4122 15.3508 10.5759 15.4978 10.6959 15.6781L10.7838 15.8026C10.9087 15.9885 11.0703 16.1468 11.2587 16.2679C11.4471 16.3889 11.6582 16.4701 11.8792 16.5065C12.1001 16.5429 12.3262 16.5336 12.5435 16.4793C12.7607 16.4251 12.9645 16.3269 13.1424 16.1908L14.6294 15.0774C14.981 14.8044 15.2148 14.4072 15.2829 13.9673C15.351 13.5273 15.2482 13.078 14.9956 12.7115L14.8052 12.4331C14.6907 12.2562 14.6157 12.0566 14.5853 11.848C14.555 11.6394 14.57 11.4267 14.6294 11.2245C14.6899 11.008 14.8022 10.8095 14.9567 10.6461C15.1111 10.4828 15.303 10.3595 15.5157 10.2869L15.6622 10.2356C16.0861 10.0885 16.4362 9.78237 16.6385 9.38186C16.8408 8.98135 16.8795 8.51788 16.7463 8.08939ZM9.50189 11.8837C8.99483 11.8837 8.49916 11.7334 8.07755 11.4517C7.65594 11.17 7.32734 10.7696 7.1333 10.3011C6.93925 9.83263 6.88848 9.31715 6.9874 8.81983C7.08633 8.32251 7.3305 7.8657 7.68905 7.50715C8.0476 7.1486 8.50441 6.90443 9.00173 6.80551C9.49905 6.70658 10.0145 6.75735 10.483 6.9514C10.9515 7.14544 11.3519 7.47404 11.6336 7.89565C11.9153 8.31726 12.0656 8.81293 12.0656 9.31999C12.0656 9.99994 11.7955 10.652 11.3147 11.1328C10.8339 11.6136 10.1818 11.8837 9.50189 11.8837Z" fill="white"/>
</svg>
