<svg width="18" height="18" viewBox="0 0 18 18" fill="none" xmlns="http://www.w3.org/2000/svg">
<g clip-path="url(#clip0_143_3400)">
<path d="M2.54405 5.45468C3.08345 5.45468 3.52072 5.01741 3.52072 4.47801C3.52072 3.93861 3.08345 3.50134 2.54405 3.50134C2.00465 3.50134 1.56738 3.93861 1.56738 4.47801C1.56738 5.01741 2.00465 5.45468 2.54405 5.45468Z" fill="white"/>
<path d="M2.54405 9.36135C3.08345 9.36135 3.52072 8.92408 3.52072 8.38469C3.52072 7.84529 3.08345 7.40802 2.54405 7.40802C2.00465 7.40802 1.56738 7.84529 1.56738 8.38469C1.56738 8.92408 2.00465 9.36135 2.54405 9.36135Z" fill="white"/>
<path d="M2.54405 13.268C3.08345 13.268 3.52072 12.8308 3.52072 12.2914C3.52072 11.752 3.08345 11.3147 2.54405 11.3147C2.00465 11.3147 1.56738 11.752 1.56738 12.2914C1.56738 12.8308 2.00465 13.268 2.54405 13.268Z" fill="white"/>
<path d="M15.8322 4.39501C15.8322 4.2655 15.7808 4.14129 15.6892 4.04971C15.5976 3.95813 15.4734 3.90668 15.3439 3.90668H4.88379V4.88334H15.3439C15.4734 4.88334 15.5976 4.83189 15.6892 4.74031C15.7808 4.64873 15.8322 4.52452 15.8322 4.39501Z" fill="white"/>
<path d="M15.3439 7.81332H4.88379V8.78999H15.3439C15.4734 8.78999 15.5976 8.73854 15.6892 8.64696C15.7808 8.55538 15.8322 8.43117 15.8322 8.30166C15.8322 8.17214 15.7808 8.04793 15.6892 7.95635C15.5976 7.86477 15.4734 7.81332 15.3439 7.81332Z" fill="white"/>
<path d="M15.3439 11.72H4.88379V12.6967H15.3439C15.4734 12.6967 15.5976 12.6452 15.6892 12.5536C15.7808 12.4621 15.8322 12.3378 15.8322 12.2083C15.8322 12.0788 15.7808 11.9546 15.6892 11.863C15.5976 11.7715 15.4734 11.72 15.3439 11.72Z" fill="white"/>
</g>
<defs>
<clipPath id="clip0_143_3400">
<rect width="17.58" height="17.58" fill="white"/>
</clipPath>
</defs>
</svg>
