<svg width="30" height="30" viewBox="0 0 30 30" fill="none" xmlns="http://www.w3.org/2000/svg">
<g clip-path="url(#clip0_143_6378)">
<path d="M22.6408 0H12.6308C11.6257 0 10.8108 0.814905 10.8108 1.82H20.8208V9.1H28.1008V23.66H21.7308V25.48H28.1008C29.1059 25.48 29.9208 24.6651 29.9208 23.66V7.28046L22.6408 0ZM22.6408 7.28V2.57348L27.3464 7.28H22.6408ZM2.62078 3.64C1.61569 3.64 0.800781 4.45491 0.800781 5.46V27.3C0.800781 28.3051 1.61569 29.12 2.62078 29.12H18.0908C19.0959 29.12 19.9108 28.3051 19.9108 27.3V10.9205L12.6308 3.64H2.62078ZM18.0908 27.3H2.62078V5.46H10.8108V12.74H18.0908V27.3ZM12.6308 10.92V6.21348L17.3364 10.92H12.6308Z" fill="#808080"/>
</g>
<defs>
<clipPath id="clip0_143_6378">
<rect width="29.12" height="29.12" fill="white" transform="translate(0.800781)"/>
</clipPath>
</defs>
</svg>
